<?xml version="1.0" encoding="utf-8" standalone="no"?>
<!DOCTYPE svg PUBLIC "-//W3C//DTD SVG 1.1//EN"
  "http://www.w3.org/Graphics/SVG/1.1/DTD/svg11.dtd">
<svg xmlns:xlink="http://www.w3.org/1999/xlink" width="460.8pt" height="345.6pt" viewBox="0 0 460.8 345.6" xmlns="http://www.w3.org/2000/svg" version="1.1">
 <metadata>
  <rdf:RDF xmlns:dc="http://purl.org/dc/elements/1.1/" xmlns:cc="http://creativecommons.org/ns#" xmlns:rdf="http://www.w3.org/1999/02/22-rdf-syntax-ns#">
   <cc:Work>
    <dc:type rdf:resource="http://purl.org/dc/dcmitype/StillImage"/>
    <dc:date>2025-11-23T15:24:55.328910</dc:date>
    <dc:format>image/svg+xml</dc:format>
    <dc:creator>
     <cc:Agent>
      <dc:title>Matplotlib v3.10.8, https://matplotlib.org/</dc:title>
     </cc:Agent>
    </dc:creator>
   </cc:Work>
  </rdf:RDF>
 </metadata>
 <defs>
  <style type="text/css">*{stroke-linejoin: round; stroke-linecap: butt}</style>
 </defs>
 <g id="figure_1">
  <g id="patch_1">
   <path d="M 0 345.6 
L 460.8 345.6 
L 460.8 0 
L 0 0 
L 0 345.6 
z
" style="fill: none"/>
  </g>
  <g id="axes_1">
   <g id="patch_2">
    <path d="M 57.6 307.584 
L 414.72 307.584 
L 414.72 41.472 
L 57.6 41.472 
L 57.6 307.584 
z
" style="fill: none"/>
   </g>
   <g id="matplotlib.axis_1">
    <g id="xtick_1">
     <g id="line2d_1">
      <defs>
       <path id="m83b48e16e2" d="M 0 0 
L 0 3.5 
" style="stroke: #ffffff; stroke-width: 0.8"/>
      </defs>
      <g>
       <use xlink:href="#m83b48e16e2" x="73.832727" y="307.584" style="fill: #ffffff; stroke: #ffffff; stroke-width: 0.8"/>
      </g>
     </g>
     <g id="text_1">
      <!-- 0 -->
      <g style="fill: #ffffff" transform="translate(70.651477 322.182437) scale(0.1 -0.1)">
       <defs>
        <path id="DejaVuSans-30" d="M 2034 4250 
Q 1547 4250 1301 3770 
Q 1056 3291 1056 2328 
Q 1056 1369 1301 889 
Q 1547 409 2034 409 
Q 2525 409 2770 889 
Q 3016 1369 3016 2328 
Q 3016 3291 2770 3770 
Q 2525 4250 2034 4250 
z
M 2034 4750 
Q 2819 4750 3233 4129 
Q 3647 3509 3647 2328 
Q 3647 1150 3233 529 
Q 2819 -91 2034 -91 
Q 1250 -91 836 529 
Q 422 1150 422 2328 
Q 422 3509 836 4129 
Q 1250 4750 2034 4750 
z
" transform="scale(0.015625)"/>
       </defs>
       <use xlink:href="#DejaVuSans-30"/>
      </g>
     </g>
    </g>
    <g id="xtick_2">
     <g id="line2d_2">
      <g>
       <use xlink:href="#m83b48e16e2" x="127.941818" y="307.584" style="fill: #ffffff; stroke: #ffffff; stroke-width: 0.8"/>
      </g>
     </g>
     <g id="text_2">
      <!-- 1 -->
      <g style="fill: #ffffff" transform="translate(124.760568 322.182437) scale(0.1 -0.1)">
       <defs>
        <path id="DejaVuSans-31" d="M 794 531 
L 1825 531 
L 1825 4091 
L 703 3866 
L 703 4441 
L 1819 4666 
L 2450 4666 
L 2450 531 
L 3481 531 
L 3481 0 
L 794 0 
L 794 531 
z
" transform="scale(0.015625)"/>
       </defs>
       <use xlink:href="#DejaVuSans-31"/>
      </g>
     </g>
    </g>
    <g id="xtick_3">
     <g id="line2d_3">
      <g>
       <use xlink:href="#m83b48e16e2" x="182.050909" y="307.584" style="fill: #ffffff; stroke: #ffffff; stroke-width: 0.8"/>
      </g>
     </g>
     <g id="text_3">
      <!-- 2 -->
      <g style="fill: #ffffff" transform="translate(178.869659 322.182437) scale(0.1 -0.1)">
       <defs>
        <path id="DejaVuSans-32" d="M 1228 531 
L 3431 531 
L 3431 0 
L 469 0 
L 469 531 
Q 828 903 1448 1529 
Q 2069 2156 2228 2338 
Q 2531 2678 2651 2914 
Q 2772 3150 2772 3378 
Q 2772 3750 2511 3984 
Q 2250 4219 1831 4219 
Q 1534 4219 1204 4116 
Q 875 4013 500 3803 
L 500 4441 
Q 881 4594 1212 4672 
Q 1544 4750 1819 4750 
Q 2544 4750 2975 4387 
Q 3406 4025 3406 3419 
Q 3406 3131 3298 2873 
Q 3191 2616 2906 2266 
Q 2828 2175 2409 1742 
Q 1991 1309 1228 531 
z
" transform="scale(0.015625)"/>
       </defs>
       <use xlink:href="#DejaVuSans-32"/>
      </g>
     </g>
    </g>
    <g id="xtick_4">
     <g id="line2d_4">
      <g>
       <use xlink:href="#m83b48e16e2" x="236.16" y="307.584" style="fill: #ffffff; stroke: #ffffff; stroke-width: 0.8"/>
      </g>
     </g>
     <g id="text_4">
      <!-- 3 -->
      <g style="fill: #ffffff" transform="translate(232.97875 322.182437) scale(0.1 -0.1)">
       <defs>
        <path id="DejaVuSans-33" d="M 2597 2516 
Q 3050 2419 3304 2112 
Q 3559 1806 3559 1356 
Q 3559 666 3084 287 
Q 2609 -91 1734 -91 
Q 1441 -91 1130 -33 
Q 819 25 488 141 
L 488 750 
Q 750 597 1062 519 
Q 1375 441 1716 441 
Q 2309 441 2620 675 
Q 2931 909 2931 1356 
Q 2931 1769 2642 2001 
Q 2353 2234 1838 2234 
L 1294 2234 
L 1294 2753 
L 1863 2753 
Q 2328 2753 2575 2939 
Q 2822 3125 2822 3475 
Q 2822 3834 2567 4026 
Q 2313 4219 1838 4219 
Q 1578 4219 1281 4162 
Q 984 4106 628 3988 
L 628 4550 
Q 988 4650 1302 4700 
Q 1616 4750 1894 4750 
Q 2613 4750 3031 4423 
Q 3450 4097 3450 3541 
Q 3450 3153 3228 2886 
Q 3006 2619 2597 2516 
z
" transform="scale(0.015625)"/>
       </defs>
       <use xlink:href="#DejaVuSans-33"/>
      </g>
     </g>
    </g>
    <g id="xtick_5">
     <g id="line2d_5">
      <g>
       <use xlink:href="#m83b48e16e2" x="290.269091" y="307.584" style="fill: #ffffff; stroke: #ffffff; stroke-width: 0.8"/>
      </g>
     </g>
     <g id="text_5">
      <!-- 4 -->
      <g style="fill: #ffffff" transform="translate(287.087841 322.182437) scale(0.1 -0.1)">
       <defs>
        <path id="DejaVuSans-34" d="M 2419 4116 
L 825 1625 
L 2419 1625 
L 2419 4116 
z
M 2253 4666 
L 3047 4666 
L 3047 1625 
L 3713 1625 
L 3713 1100 
L 3047 1100 
L 3047 0 
L 2419 0 
L 2419 1100 
L 313 1100 
L 313 1709 
L 2253 4666 
z
" transform="scale(0.015625)"/>
       </defs>
       <use xlink:href="#DejaVuSans-34"/>
      </g>
     </g>
    </g>
    <g id="xtick_6">
     <g id="line2d_6">
      <g>
       <use xlink:href="#m83b48e16e2" x="344.378182" y="307.584" style="fill: #ffffff; stroke: #ffffff; stroke-width: 0.8"/>
      </g>
     </g>
     <g id="text_6">
      <!-- 5 -->
      <g style="fill: #ffffff" transform="translate(341.196932 322.182437) scale(0.1 -0.1)">
       <defs>
        <path id="DejaVuSans-35" d="M 691 4666 
L 3169 4666 
L 3169 4134 
L 1269 4134 
L 1269 2991 
Q 1406 3038 1543 3061 
Q 1681 3084 1819 3084 
Q 2600 3084 3056 2656 
Q 3513 2228 3513 1497 
Q 3513 744 3044 326 
Q 2575 -91 1722 -91 
Q 1428 -91 1123 -41 
Q 819 9 494 109 
L 494 744 
Q 775 591 1075 516 
Q 1375 441 1709 441 
Q 2250 441 2565 725 
Q 2881 1009 2881 1497 
Q 2881 1984 2565 2268 
Q 2250 2553 1709 2553 
Q 1456 2553 1204 2497 
Q 953 2441 691 2322 
L 691 4666 
z
" transform="scale(0.015625)"/>
       </defs>
       <use xlink:href="#DejaVuSans-35"/>
      </g>
     </g>
    </g>
    <g id="xtick_7">
     <g id="line2d_7">
      <g>
       <use xlink:href="#m83b48e16e2" x="398.487273" y="307.584" style="fill: #ffffff; stroke: #ffffff; stroke-width: 0.8"/>
      </g>
     </g>
     <g id="text_7">
      <!-- 6 -->
      <g style="fill: #ffffff" transform="translate(395.306023 322.182437) scale(0.1 -0.1)">
       <defs>
        <path id="DejaVuSans-36" d="M 2113 2584 
Q 1688 2584 1439 2293 
Q 1191 2003 1191 1497 
Q 1191 994 1439 701 
Q 1688 409 2113 409 
Q 2538 409 2786 701 
Q 3034 994 3034 1497 
Q 3034 2003 2786 2293 
Q 2538 2584 2113 2584 
z
M 3366 4563 
L 3366 3988 
Q 3128 4100 2886 4159 
Q 2644 4219 2406 4219 
Q 1781 4219 1451 3797 
Q 1122 3375 1075 2522 
Q 1259 2794 1537 2939 
Q 1816 3084 2150 3084 
Q 2853 3084 3261 2657 
Q 3669 2231 3669 1497 
Q 3669 778 3244 343 
Q 2819 -91 2113 -91 
Q 1303 -91 875 529 
Q 447 1150 447 2328 
Q 447 3434 972 4092 
Q 1497 4750 2381 4750 
Q 2619 4750 2861 4703 
Q 3103 4656 3366 4563 
z
" transform="scale(0.015625)"/>
       </defs>
       <use xlink:href="#DejaVuSans-36"/>
      </g>
     </g>
    </g>
    <g id="text_8">
     <!-- x-axis -->
     <g style="fill: #ffffff" transform="translate(221.379531 335.860562) scale(0.1 -0.1)">
      <defs>
       <path id="DejaVuSans-78" d="M 3513 3500 
L 2247 1797 
L 3578 0 
L 2900 0 
L 1881 1375 
L 863 0 
L 184 0 
L 1544 1831 
L 300 3500 
L 978 3500 
L 1906 2253 
L 2834 3500 
L 3513 3500 
z
" transform="scale(0.015625)"/>
       <path id="DejaVuSans-2d" d="M 313 2009 
L 1997 2009 
L 1997 1497 
L 313 1497 
L 313 2009 
z
" transform="scale(0.015625)"/>
       <path id="DejaVuSans-61" d="M 2194 1759 
Q 1497 1759 1228 1600 
Q 959 1441 959 1056 
Q 959 750 1161 570 
Q 1363 391 1709 391 
Q 2188 391 2477 730 
Q 2766 1069 2766 1631 
L 2766 1759 
L 2194 1759 
z
M 3341 1997 
L 3341 0 
L 2766 0 
L 2766 531 
Q 2569 213 2275 61 
Q 1981 -91 1556 -91 
Q 1019 -91 701 211 
Q 384 513 384 1019 
Q 384 1609 779 1909 
Q 1175 2209 1959 2209 
L 2766 2209 
L 2766 2266 
Q 2766 2663 2505 2880 
Q 2244 3097 1772 3097 
Q 1472 3097 1187 3025 
Q 903 2953 641 2809 
L 641 3341 
Q 956 3463 1253 3523 
Q 1550 3584 1831 3584 
Q 2591 3584 2966 3190 
Q 3341 2797 3341 1997 
z
" transform="scale(0.015625)"/>
       <path id="DejaVuSans-69" d="M 603 3500 
L 1178 3500 
L 1178 0 
L 603 0 
L 603 3500 
z
M 603 4863 
L 1178 4863 
L 1178 4134 
L 603 4134 
L 603 4863 
z
" transform="scale(0.015625)"/>
       <path id="DejaVuSans-73" d="M 2834 3397 
L 2834 2853 
Q 2591 2978 2328 3040 
Q 2066 3103 1784 3103 
Q 1356 3103 1142 2972 
Q 928 2841 928 2578 
Q 928 2378 1081 2264 
Q 1234 2150 1697 2047 
L 1894 2003 
Q 2506 1872 2764 1633 
Q 3022 1394 3022 966 
Q 3022 478 2636 193 
Q 2250 -91 1575 -91 
Q 1294 -91 989 -36 
Q 684 19 347 128 
L 347 722 
Q 666 556 975 473 
Q 1284 391 1588 391 
Q 1994 391 2212 530 
Q 2431 669 2431 922 
Q 2431 1156 2273 1281 
Q 2116 1406 1581 1522 
L 1381 1569 
Q 847 1681 609 1914 
Q 372 2147 372 2553 
Q 372 3047 722 3315 
Q 1072 3584 1716 3584 
Q 2034 3584 2315 3537 
Q 2597 3491 2834 3397 
z
" transform="scale(0.015625)"/>
      </defs>
      <use xlink:href="#DejaVuSans-78"/>
      <use xlink:href="#DejaVuSans-2d" transform="translate(59.179688 0)"/>
      <use xlink:href="#DejaVuSans-61" transform="translate(95.263672 0)"/>
      <use xlink:href="#DejaVuSans-78" transform="translate(156.542969 0)"/>
      <use xlink:href="#DejaVuSans-69" transform="translate(215.722656 0)"/>
      <use xlink:href="#DejaVuSans-73" transform="translate(243.505859 0)"/>
     </g>
    </g>
   </g>
   <g id="matplotlib.axis_2">
    <g id="ytick_1">
     <g id="line2d_8">
      <defs>
       <path id="m228cfc914c" d="M 0 0 
L -3.5 0 
" style="stroke: #ffffff; stroke-width: 0.8"/>
      </defs>
      <g>
       <use xlink:href="#m228cfc914c" x="57.6" y="295.488218" style="fill: #ffffff; stroke: #ffffff; stroke-width: 0.8"/>
      </g>
     </g>
     <g id="text_9">
      <!-- −1.00 -->
      <g style="fill: #ffffff" transform="translate(19.954687 299.287436) scale(0.1 -0.1)">
       <defs>
        <path id="DejaVuSans-2212" d="M 678 2272 
L 4684 2272 
L 4684 1741 
L 678 1741 
L 678 2272 
z
" transform="scale(0.015625)"/>
        <path id="DejaVuSans-2e" d="M 684 794 
L 1344 794 
L 1344 0 
L 684 0 
L 684 794 
z
" transform="scale(0.015625)"/>
       </defs>
       <use xlink:href="#DejaVuSans-2212"/>
       <use xlink:href="#DejaVuSans-31" transform="translate(83.789062 0)"/>
       <use xlink:href="#DejaVuSans-2e" transform="translate(147.412109 0)"/>
       <use xlink:href="#DejaVuSans-30" transform="translate(179.199219 0)"/>
       <use xlink:href="#DejaVuSans-30" transform="translate(242.822266 0)"/>
      </g>
     </g>
    </g>
    <g id="ytick_2">
     <g id="line2d_9">
      <g>
       <use xlink:href="#m228cfc914c" x="57.6" y="265.244843" style="fill: #ffffff; stroke: #ffffff; stroke-width: 0.8"/>
      </g>
     </g>
     <g id="text_10">
      <!-- −0.75 -->
      <g style="fill: #ffffff" transform="translate(19.954687 269.044062) scale(0.1 -0.1)">
       <defs>
        <path id="DejaVuSans-37" d="M 525 4666 
L 3525 4666 
L 3525 4397 
L 1831 0 
L 1172 0 
L 2766 4134 
L 525 4134 
L 525 4666 
z
" transform="scale(0.015625)"/>
       </defs>
       <use xlink:href="#DejaVuSans-2212"/>
       <use xlink:href="#DejaVuSans-30" transform="translate(83.789062 0)"/>
       <use xlink:href="#DejaVuSans-2e" transform="translate(147.412109 0)"/>
       <use xlink:href="#DejaVuSans-37" transform="translate(179.199219 0)"/>
       <use xlink:href="#DejaVuSans-35" transform="translate(242.822266 0)"/>
      </g>
     </g>
    </g>
    <g id="ytick_3">
     <g id="line2d_10">
      <g>
       <use xlink:href="#m228cfc914c" x="57.6" y="235.001469" style="fill: #ffffff; stroke: #ffffff; stroke-width: 0.8"/>
      </g>
     </g>
     <g id="text_11">
      <!-- −0.50 -->
      <g style="fill: #ffffff" transform="translate(19.954687 238.800688) scale(0.1 -0.1)">
       <use xlink:href="#DejaVuSans-2212"/>
       <use xlink:href="#DejaVuSans-30" transform="translate(83.789062 0)"/>
       <use xlink:href="#DejaVuSans-2e" transform="translate(147.412109 0)"/>
       <use xlink:href="#DejaVuSans-35" transform="translate(179.199219 0)"/>
       <use xlink:href="#DejaVuSans-30" transform="translate(242.822266 0)"/>
      </g>
     </g>
    </g>
    <g id="ytick_4">
     <g id="line2d_11">
      <g>
       <use xlink:href="#m228cfc914c" x="57.6" y="204.758095" style="fill: #ffffff; stroke: #ffffff; stroke-width: 0.8"/>
      </g>
     </g>
     <g id="text_12">
      <!-- −0.25 -->
      <g style="fill: #ffffff" transform="translate(19.954687 208.557314) scale(0.1 -0.1)">
       <use xlink:href="#DejaVuSans-2212"/>
       <use xlink:href="#DejaVuSans-30" transform="translate(83.789062 0)"/>
       <use xlink:href="#DejaVuSans-2e" transform="translate(147.412109 0)"/>
       <use xlink:href="#DejaVuSans-32" transform="translate(179.199219 0)"/>
       <use xlink:href="#DejaVuSans-35" transform="translate(242.822266 0)"/>
      </g>
     </g>
    </g>
    <g id="ytick_5">
     <g id="line2d_12">
      <g>
       <use xlink:href="#m228cfc914c" x="57.6" y="174.514721" style="fill: #ffffff; stroke: #ffffff; stroke-width: 0.8"/>
      </g>
     </g>
     <g id="text_13">
      <!-- 0.00 -->
      <g style="fill: #ffffff" transform="translate(28.334375 178.313939) scale(0.1 -0.1)">
       <use xlink:href="#DejaVuSans-30"/>
       <use xlink:href="#DejaVuSans-2e" transform="translate(63.623047 0)"/>
       <use xlink:href="#DejaVuSans-30" transform="translate(95.410156 0)"/>
       <use xlink:href="#DejaVuSans-30" transform="translate(159.033203 0)"/>
      </g>
     </g>
    </g>
    <g id="ytick_6">
     <g id="line2d_13">
      <g>
       <use xlink:href="#m228cfc914c" x="57.6" y="144.271346" style="fill: #ffffff; stroke: #ffffff; stroke-width: 0.8"/>
      </g>
     </g>
     <g id="text_14">
      <!-- 0.25 -->
      <g style="fill: #ffffff" transform="translate(28.334375 148.070565) scale(0.1 -0.1)">
       <use xlink:href="#DejaVuSans-30"/>
       <use xlink:href="#DejaVuSans-2e" transform="translate(63.623047 0)"/>
       <use xlink:href="#DejaVuSans-32" transform="translate(95.410156 0)"/>
       <use xlink:href="#DejaVuSans-35" transform="translate(159.033203 0)"/>
      </g>
     </g>
    </g>
    <g id="ytick_7">
     <g id="line2d_14">
      <g>
       <use xlink:href="#m228cfc914c" x="57.6" y="114.027972" style="fill: #ffffff; stroke: #ffffff; stroke-width: 0.8"/>
      </g>
     </g>
     <g id="text_15">
      <!-- 0.50 -->
      <g style="fill: #ffffff" transform="translate(28.334375 117.827191) scale(0.1 -0.1)">
       <use xlink:href="#DejaVuSans-30"/>
       <use xlink:href="#DejaVuSans-2e" transform="translate(63.623047 0)"/>
       <use xlink:href="#DejaVuSans-35" transform="translate(95.410156 0)"/>
       <use xlink:href="#DejaVuSans-30" transform="translate(159.033203 0)"/>
      </g>
     </g>
    </g>
    <g id="ytick_8">
     <g id="line2d_15">
      <g>
       <use xlink:href="#m228cfc914c" x="57.6" y="83.784598" style="fill: #ffffff; stroke: #ffffff; stroke-width: 0.8"/>
      </g>
     </g>
     <g id="text_16">
      <!-- 0.75 -->
      <g style="fill: #ffffff" transform="translate(28.334375 87.583817) scale(0.1 -0.1)">
       <use xlink:href="#DejaVuSans-30"/>
       <use xlink:href="#DejaVuSans-2e" transform="translate(63.623047 0)"/>
       <use xlink:href="#DejaVuSans-37" transform="translate(95.410156 0)"/>
       <use xlink:href="#DejaVuSans-35" transform="translate(159.033203 0)"/>
      </g>
     </g>
    </g>
    <g id="ytick_9">
     <g id="line2d_16">
      <g>
       <use xlink:href="#m228cfc914c" x="57.6" y="53.541224" style="fill: #ffffff; stroke: #ffffff; stroke-width: 0.8"/>
      </g>
     </g>
     <g id="text_17">
      <!-- 1.00 -->
      <g style="fill: #ffffff" transform="translate(28.334375 57.340442) scale(0.1 -0.1)">
       <use xlink:href="#DejaVuSans-31"/>
       <use xlink:href="#DejaVuSans-2e" transform="translate(63.623047 0)"/>
       <use xlink:href="#DejaVuSans-30" transform="translate(95.410156 0)"/>
       <use xlink:href="#DejaVuSans-30" transform="translate(159.033203 0)"/>
      </g>
     </g>
    </g>
    <g id="text_18">
     <!-- y-axis -->
     <g style="fill: #ffffff" transform="translate(13.875 189.220969) rotate(-90) scale(0.1 -0.1)">
      <defs>
       <path id="DejaVuSans-79" d="M 2059 -325 
Q 1816 -950 1584 -1140 
Q 1353 -1331 966 -1331 
L 506 -1331 
L 506 -850 
L 844 -850 
Q 1081 -850 1212 -737 
Q 1344 -625 1503 -206 
L 1606 56 
L 191 3500 
L 800 3500 
L 1894 763 
L 2988 3500 
L 3597 3500 
L 2059 -325 
z
" transform="scale(0.015625)"/>
      </defs>
      <use xlink:href="#DejaVuSans-79"/>
      <use xlink:href="#DejaVuSans-2d" transform="translate(57.429688 0)"/>
      <use xlink:href="#DejaVuSans-61" transform="translate(93.513672 0)"/>
      <use xlink:href="#DejaVuSans-78" transform="translate(154.792969 0)"/>
      <use xlink:href="#DejaVuSans-69" transform="translate(213.972656 0)"/>
      <use xlink:href="#DejaVuSans-73" transform="translate(241.755859 0)"/>
     </g>
    </g>
   </g>
   <g id="line2d_17">
    <path d="M 73.832727 174.514721 
L 80.45833 159.738629 
L 87.083933 145.18381 
L 93.709536 131.068221 
L 100.335139 117.603246 
L 106.960742 104.990521 
L 113.586345 93.418923 
L 120.211948 83.061737 
L 126.837551 74.074062 
L 133.463154 66.590488 
L 140.088757 60.723083 
L 146.71436 56.559711 
L 153.339963 54.162718 
L 159.965566 53.568 
L 166.591169 54.784462 
L 173.216772 57.793889 
L 179.842375 62.551212 
L 186.467978 68.985193 
L 193.093581 76.999481 
L 199.719184 86.474063 
L 206.344787 97.267055 
L 212.97039 109.216834 
L 219.595993 122.14445 
L 226.221596 135.856313 
L 232.847199 150.147086 
L 239.472801 164.802766 
L 246.098404 179.603882 
L 252.724007 194.328788 
L 259.34961 208.756977 
L 265.975213 222.672388 
L 272.600816 235.866636 
L 279.226419 248.142138 
L 285.852022 259.315067 
L 292.477625 269.218109 
L 299.103228 277.702965 
L 305.728831 284.642574 
L 312.354434 289.933015 
L 318.980037 293.495065 
L 325.60564 295.27538 
L 332.231243 295.247301 
L 338.856846 293.411248 
L 345.482449 289.794717 
L 352.108052 284.451864 
L 358.733655 277.4627 
L 365.359258 268.931887 
L 371.984861 258.987174 
L 378.610464 247.777484 
L 385.236067 235.470682 
L 391.86167 222.251063 
L 398.487273 208.316591 
" clip-path="url(#pa9a79c7691)" style="fill: none; stroke: #8dd3c7; stroke-width: 1.5; stroke-linecap: square"/>
    <defs>
     <path id="m8aa2e5658d" d="M 0 3 
C 0.795609 3 1.55874 2.683901 2.12132 2.12132 
C 2.683901 1.55874 3 0.795609 3 0 
C 3 -0.795609 2.683901 -1.55874 2.12132 -2.12132 
C 1.55874 -2.683901 0.795609 -3 0 -3 
C -0.795609 -3 -1.55874 -2.683901 -2.12132 -2.12132 
C -2.683901 -1.55874 -3 -0.795609 -3 0 
C -3 0.795609 -2.683901 1.55874 -2.12132 2.12132 
C -1.55874 2.683901 -0.795609 3 0 3 
z
" style="stroke: #8dd3c7"/>
    </defs>
    <g clip-path="url(#pa9a79c7691)">
     <use xlink:href="#m8aa2e5658d" x="73.832727" y="174.514721" style="fill: #8dd3c7; stroke: #8dd3c7"/>
     <use xlink:href="#m8aa2e5658d" x="80.45833" y="159.738629" style="fill: #8dd3c7; stroke: #8dd3c7"/>
     <use xlink:href="#m8aa2e5658d" x="87.083933" y="145.18381" style="fill: #8dd3c7; stroke: #8dd3c7"/>
     <use xlink:href="#m8aa2e5658d" x="93.709536" y="131.068221" style="fill: #8dd3c7; stroke: #8dd3c7"/>
     <use xlink:href="#m8aa2e5658d" x="100.335139" y="117.603246" style="fill: #8dd3c7; stroke: #8dd3c7"/>
     <use xlink:href="#m8aa2e5658d" x="106.960742" y="104.990521" style="fill: #8dd3c7; stroke: #8dd3c7"/>
     <use xlink:href="#m8aa2e5658d" x="113.586345" y="93.418923" style="fill: #8dd3c7; stroke: #8dd3c7"/>
     <use xlink:href="#m8aa2e5658d" x="120.211948" y="83.061737" style="fill: #8dd3c7; stroke: #8dd3c7"/>
     <use xlink:href="#m8aa2e5658d" x="126.837551" y="74.074062" style="fill: #8dd3c7; stroke: #8dd3c7"/>
     <use xlink:href="#m8aa2e5658d" x="133.463154" y="66.590488" style="fill: #8dd3c7; stroke: #8dd3c7"/>
     <use xlink:href="#m8aa2e5658d" x="140.088757" y="60.723083" style="fill: #8dd3c7; stroke: #8dd3c7"/>
     <use xlink:href="#m8aa2e5658d" x="146.71436" y="56.559711" style="fill: #8dd3c7; stroke: #8dd3c7"/>
     <use xlink:href="#m8aa2e5658d" x="153.339963" y="54.162718" style="fill: #8dd3c7; stroke: #8dd3c7"/>
     <use xlink:href="#m8aa2e5658d" x="159.965566" y="53.568" style="fill: #8dd3c7; stroke: #8dd3c7"/>
     <use xlink:href="#m8aa2e5658d" x="166.591169" y="54.784462" style="fill: #8dd3c7; stroke: #8dd3c7"/>
     <use xlink:href="#m8aa2e5658d" x="173.216772" y="57.793889" style="fill: #8dd3c7; stroke: #8dd3c7"/>
     <use xlink:href="#m8aa2e5658d" x="179.842375" y="62.551212" style="fill: #8dd3c7; stroke: #8dd3c7"/>
     <use xlink:href="#m8aa2e5658d" x="186.467978" y="68.985193" style="fill: #8dd3c7; stroke: #8dd3c7"/>
     <use xlink:href="#m8aa2e5658d" x="193.093581" y="76.999481" style="fill: #8dd3c7; stroke: #8dd3c7"/>
     <use xlink:href="#m8aa2e5658d" x="199.719184" y="86.474063" style="fill: #8dd3c7; stroke: #8dd3c7"/>
     <use xlink:href="#m8aa2e5658d" x="206.344787" y="97.267055" style="fill: #8dd3c7; stroke: #8dd3c7"/>
     <use xlink:href="#m8aa2e5658d" x="212.97039" y="109.216834" style="fill: #8dd3c7; stroke: #8dd3c7"/>
     <use xlink:href="#m8aa2e5658d" x="219.595993" y="122.14445" style="fill: #8dd3c7; stroke: #8dd3c7"/>
     <use xlink:href="#m8aa2e5658d" x="226.221596" y="135.856313" style="fill: #8dd3c7; stroke: #8dd3c7"/>
     <use xlink:href="#m8aa2e5658d" x="232.847199" y="150.147086" style="fill: #8dd3c7; stroke: #8dd3c7"/>
     <use xlink:href="#m8aa2e5658d" x="239.472801" y="164.802766" style="fill: #8dd3c7; stroke: #8dd3c7"/>
     <use xlink:href="#m8aa2e5658d" x="246.098404" y="179.603882" style="fill: #8dd3c7; stroke: #8dd3c7"/>
     <use xlink:href="#m8aa2e5658d" x="252.724007" y="194.328788" style="fill: #8dd3c7; stroke: #8dd3c7"/>
     <use xlink:href="#m8aa2e5658d" x="259.34961" y="208.756977" style="fill: #8dd3c7; stroke: #8dd3c7"/>
     <use xlink:href="#m8aa2e5658d" x="265.975213" y="222.672388" style="fill: #8dd3c7; stroke: #8dd3c7"/>
     <use xlink:href="#m8aa2e5658d" x="272.600816" y="235.866636" style="fill: #8dd3c7; stroke: #8dd3c7"/>
     <use xlink:href="#m8aa2e5658d" x="279.226419" y="248.142138" style="fill: #8dd3c7; stroke: #8dd3c7"/>
     <use xlink:href="#m8aa2e5658d" x="285.852022" y="259.315067" style="fill: #8dd3c7; stroke: #8dd3c7"/>
     <use xlink:href="#m8aa2e5658d" x="292.477625" y="269.218109" style="fill: #8dd3c7; stroke: #8dd3c7"/>
     <use xlink:href="#m8aa2e5658d" x="299.103228" y="277.702965" style="fill: #8dd3c7; stroke: #8dd3c7"/>
     <use xlink:href="#m8aa2e5658d" x="305.728831" y="284.642574" style="fill: #8dd3c7; stroke: #8dd3c7"/>
     <use xlink:href="#m8aa2e5658d" x="312.354434" y="289.933015" style="fill: #8dd3c7; stroke: #8dd3c7"/>
     <use xlink:href="#m8aa2e5658d" x="318.980037" y="293.495065" style="fill: #8dd3c7; stroke: #8dd3c7"/>
     <use xlink:href="#m8aa2e5658d" x="325.60564" y="295.27538" style="fill: #8dd3c7; stroke: #8dd3c7"/>
     <use xlink:href="#m8aa2e5658d" x="332.231243" y="295.247301" style="fill: #8dd3c7; stroke: #8dd3c7"/>
     <use xlink:href="#m8aa2e5658d" x="338.856846" y="293.411248" style="fill: #8dd3c7; stroke: #8dd3c7"/>
     <use xlink:href="#m8aa2e5658d" x="345.482449" y="289.794717" style="fill: #8dd3c7; stroke: #8dd3c7"/>
     <use xlink:href="#m8aa2e5658d" x="352.108052" y="284.451864" style="fill: #8dd3c7; stroke: #8dd3c7"/>
     <use xlink:href="#m8aa2e5658d" x="358.733655" y="277.4627" style="fill: #8dd3c7; stroke: #8dd3c7"/>
     <use xlink:href="#m8aa2e5658d" x="365.359258" y="268.931887" style="fill: #8dd3c7; stroke: #8dd3c7"/>
     <use xlink:href="#m8aa2e5658d" x="371.984861" y="258.987174" style="fill: #8dd3c7; stroke: #8dd3c7"/>
     <use xlink:href="#m8aa2e5658d" x="378.610464" y="247.777484" style="fill: #8dd3c7; stroke: #8dd3c7"/>
     <use xlink:href="#m8aa2e5658d" x="385.236067" y="235.470682" style="fill: #8dd3c7; stroke: #8dd3c7"/>
     <use xlink:href="#m8aa2e5658d" x="391.86167" y="222.251063" style="fill: #8dd3c7; stroke: #8dd3c7"/>
     <use xlink:href="#m8aa2e5658d" x="398.487273" y="208.316591" style="fill: #8dd3c7; stroke: #8dd3c7"/>
    </g>
   </g>
   <g id="line2d_18">
    <path d="M 73.832727 72.719033 
L 80.45833 65.497673 
L 87.083933 59.908847 
L 93.709536 56.036246 
L 100.335139 53.937864 
L 106.960742 53.645124 
L 113.586345 55.162409 
L 120.211948 58.466999 
L 126.837551 63.509406 
L 133.463154 70.214121 
L 140.088757 78.48074 
L 146.71436 88.185471 
L 153.339963 99.182985 
L 159.965566 111.308593 
L 166.591169 124.380715 
L 173.216772 138.203595 
L 179.842375 152.570236 
L 186.467978 167.265495 
L 193.093581 182.069312 
L 199.719184 196.759999 
L 206.344787 211.117562 
L 212.97039 224.926996 
L 219.595993 237.981505 
L 226.221596 250.085598 
L 232.847199 261.058014 
L 239.472801 270.734442 
L 246.098404 278.969977 
L 252.724007 285.641292 
L 259.34961 290.648484 
L 265.975213 293.916569 
L 272.600816 295.396608 
L 279.226419 295.066437 
L 285.852022 292.931002 
L 292.477625 289.022279 
L 299.103228 283.398802 
L 305.728831 276.144783 
L 312.354434 267.368851 
L 318.980037 257.202426 
L 325.60564 245.797751 
L 332.231243 233.32561 
L 338.856846 219.972774 
L 345.482449 205.939203 
L 352.108052 191.435049 
L 358.733655 176.677513 
L 365.359258 161.887589 
L 371.984861 147.286756 
L 378.610464 133.093664 
L 385.236067 119.520852 
L 391.86167 106.771575 
L 398.487273 95.036754 
" clip-path="url(#pa9a79c7691)" style="fill: none; stroke: #feffb3; stroke-width: 1.5; stroke-linecap: square"/>
    <defs>
     <path id="m98e200732c" d="M 0 3 
C 0.795609 3 1.55874 2.683901 2.12132 2.12132 
C 2.683901 1.55874 3 0.795609 3 0 
C 3 -0.795609 2.683901 -1.55874 2.12132 -2.12132 
C 1.55874 -2.683901 0.795609 -3 0 -3 
C -0.795609 -3 -1.55874 -2.683901 -2.12132 -2.12132 
C -2.683901 -1.55874 -3 -0.795609 -3 0 
C -3 0.795609 -2.683901 1.55874 -2.12132 2.12132 
C -1.55874 2.683901 -0.795609 3 0 3 
z
" style="stroke: #feffb3"/>
    </defs>
    <g clip-path="url(#pa9a79c7691)">
     <use xlink:href="#m98e200732c" x="73.832727" y="72.719033" style="fill: #feffb3; stroke: #feffb3"/>
     <use xlink:href="#m98e200732c" x="80.45833" y="65.497673" style="fill: #feffb3; stroke: #feffb3"/>
     <use xlink:href="#m98e200732c" x="87.083933" y="59.908847" style="fill: #feffb3; stroke: #feffb3"/>
     <use xlink:href="#m98e200732c" x="93.709536" y="56.036246" style="fill: #feffb3; stroke: #feffb3"/>
     <use xlink:href="#m98e200732c" x="100.335139" y="53.937864" style="fill: #feffb3; stroke: #feffb3"/>
     <use xlink:href="#m98e200732c" x="106.960742" y="53.645124" style="fill: #feffb3; stroke: #feffb3"/>
     <use xlink:href="#m98e200732c" x="113.586345" y="55.162409" style="fill: #feffb3; stroke: #feffb3"/>
     <use xlink:href="#m98e200732c" x="120.211948" y="58.466999" style="fill: #feffb3; stroke: #feffb3"/>
     <use xlink:href="#m98e200732c" x="126.837551" y="63.509406" style="fill: #feffb3; stroke: #feffb3"/>
     <use xlink:href="#m98e200732c" x="133.463154" y="70.214121" style="fill: #feffb3; stroke: #feffb3"/>
     <use xlink:href="#m98e200732c" x="140.088757" y="78.48074" style="fill: #feffb3; stroke: #feffb3"/>
     <use xlink:href="#m98e200732c" x="146.71436" y="88.185471" style="fill: #feffb3; stroke: #feffb3"/>
     <use xlink:href="#m98e200732c" x="153.339963" y="99.182985" style="fill: #feffb3; stroke: #feffb3"/>
     <use xlink:href="#m98e200732c" x="159.965566" y="111.308593" style="fill: #feffb3; stroke: #feffb3"/>
     <use xlink:href="#m98e200732c" x="166.591169" y="124.380715" style="fill: #feffb3; stroke: #feffb3"/>
     <use xlink:href="#m98e200732c" x="173.216772" y="138.203595" style="fill: #feffb3; stroke: #feffb3"/>
     <use xlink:href="#m98e200732c" x="179.842375" y="152.570236" style="fill: #feffb3; stroke: #feffb3"/>
     <use xlink:href="#m98e200732c" x="186.467978" y="167.265495" style="fill: #feffb3; stroke: #feffb3"/>
     <use xlink:href="#m98e200732c" x="193.093581" y="182.069312" style="fill: #feffb3; stroke: #feffb3"/>
     <use xlink:href="#m98e200732c" x="199.719184" y="196.759999" style="fill: #feffb3; stroke: #feffb3"/>
     <use xlink:href="#m98e200732c" x="206.344787" y="211.117562" style="fill: #feffb3; stroke: #feffb3"/>
     <use xlink:href="#m98e200732c" x="212.97039" y="224.926996" style="fill: #feffb3; stroke: #feffb3"/>
     <use xlink:href="#m98e200732c" x="219.595993" y="237.981505" style="fill: #feffb3; stroke: #feffb3"/>
     <use xlink:href="#m98e200732c" x="226.221596" y="250.085598" style="fill: #feffb3; stroke: #feffb3"/>
     <use xlink:href="#m98e200732c" x="232.847199" y="261.058014" style="fill: #feffb3; stroke: #feffb3"/>
     <use xlink:href="#m98e200732c" x="239.472801" y="270.734442" style="fill: #feffb3; stroke: #feffb3"/>
     <use xlink:href="#m98e200732c" x="246.098404" y="278.969977" style="fill: #feffb3; stroke: #feffb3"/>
     <use xlink:href="#m98e200732c" x="252.724007" y="285.641292" style="fill: #feffb3; stroke: #feffb3"/>
     <use xlink:href="#m98e200732c" x="259.34961" y="290.648484" style="fill: #feffb3; stroke: #feffb3"/>
     <use xlink:href="#m98e200732c" x="265.975213" y="293.916569" style="fill: #feffb3; stroke: #feffb3"/>
     <use xlink:href="#m98e200732c" x="272.600816" y="295.396608" style="fill: #feffb3; stroke: #feffb3"/>
     <use xlink:href="#m98e200732c" x="279.226419" y="295.066437" style="fill: #feffb3; stroke: #feffb3"/>
     <use xlink:href="#m98e200732c" x="285.852022" y="292.931002" style="fill: #feffb3; stroke: #feffb3"/>
     <use xlink:href="#m98e200732c" x="292.477625" y="289.022279" style="fill: #feffb3; stroke: #feffb3"/>
     <use xlink:href="#m98e200732c" x="299.103228" y="283.398802" style="fill: #feffb3; stroke: #feffb3"/>
     <use xlink:href="#m98e200732c" x="305.728831" y="276.144783" style="fill: #feffb3; stroke: #feffb3"/>
     <use xlink:href="#m98e200732c" x="312.354434" y="267.368851" style="fill: #feffb3; stroke: #feffb3"/>
     <use xlink:href="#m98e200732c" x="318.980037" y="257.202426" style="fill: #feffb3; stroke: #feffb3"/>
     <use xlink:href="#m98e200732c" x="325.60564" y="245.797751" style="fill: #feffb3; stroke: #feffb3"/>
     <use xlink:href="#m98e200732c" x="332.231243" y="233.32561" style="fill: #feffb3; stroke: #feffb3"/>
     <use xlink:href="#m98e200732c" x="338.856846" y="219.972774" style="fill: #feffb3; stroke: #feffb3"/>
     <use xlink:href="#m98e200732c" x="345.482449" y="205.939203" style="fill: #feffb3; stroke: #feffb3"/>
     <use xlink:href="#m98e200732c" x="352.108052" y="191.435049" style="fill: #feffb3; stroke: #feffb3"/>
     <use xlink:href="#m98e200732c" x="358.733655" y="176.677513" style="fill: #feffb3; stroke: #feffb3"/>
     <use xlink:href="#m98e200732c" x="365.359258" y="161.887589" style="fill: #feffb3; stroke: #feffb3"/>
     <use xlink:href="#m98e200732c" x="371.984861" y="147.286756" style="fill: #feffb3; stroke: #feffb3"/>
     <use xlink:href="#m98e200732c" x="378.610464" y="133.093664" style="fill: #feffb3; stroke: #feffb3"/>
     <use xlink:href="#m98e200732c" x="385.236067" y="119.520852" style="fill: #feffb3; stroke: #feffb3"/>
     <use xlink:href="#m98e200732c" x="391.86167" y="106.771575" style="fill: #feffb3; stroke: #feffb3"/>
     <use xlink:href="#m98e200732c" x="398.487273" y="95.036754" style="fill: #feffb3; stroke: #feffb3"/>
    </g>
   </g>
   <g id="line2d_19">
    <path d="M 73.832727 64.513831 
L 80.45833 71.486488 
L 87.083933 80.001996 
L 93.709536 89.932834 
L 100.335139 101.130288 
L 106.960742 113.426677 
L 113.586345 126.63786 
L 120.211948 140.566001 
L 126.837551 155.002525 
L 133.463154 169.731244 
L 140.088757 184.531596 
L 146.71436 199.181945 
L 153.339963 213.462902 
L 159.965566 227.160609 
L 166.591169 240.069942 
L 173.216772 251.997583 
L 179.842375 262.764917 
L 186.467978 272.210702 
L 193.093581 280.193487 
L 199.719184 286.593729 
L 206.344787 291.315585 
L 212.97039 294.288345 
L 219.595993 295.467491 
L 226.221596 294.835366 
L 232.847199 292.401437 
L 239.472801 288.20215 
L 246.098404 282.300392 
L 252.724007 274.784539 
L 259.34961 265.767144 
L 265.975213 255.383241 
L 272.600816 243.78833 
L 279.226419 231.156044 
L 285.852022 217.675553 
L 292.477625 203.548727 
L 299.103228 188.987117 
L 305.728831 174.208782 
L 312.354434 159.435028 
L 318.980037 144.887093 
L 325.60564 130.782832 
L 332.231243 117.333458 
L 338.856846 104.740375 
L 345.482449 93.192165 
L 352.108052 82.861762 
L 358.733655 73.903864 
L 365.359258 66.452617 
L 371.984861 60.619603 
L 378.610464 56.492172 
L 385.236067 54.132131 
L 391.86167 53.574823 
L 398.487273 54.828594 
" clip-path="url(#pa9a79c7691)" style="fill: none; stroke: #bfbbd9; stroke-width: 1.5; stroke-linecap: square"/>
    <defs>
     <path id="m73123f5389" d="M 0 3 
C 0.795609 3 1.55874 2.683901 2.12132 2.12132 
C 2.683901 1.55874 3 0.795609 3 0 
C 3 -0.795609 2.683901 -1.55874 2.12132 -2.12132 
C 1.55874 -2.683901 0.795609 -3 0 -3 
C -0.795609 -3 -1.55874 -2.683901 -2.12132 -2.12132 
C -2.683901 -1.55874 -3 -0.795609 -3 0 
C -3 0.795609 -2.683901 1.55874 -2.12132 2.12132 
C -1.55874 2.683901 -0.795609 3 0 3 
z
" style="stroke: #bfbbd9"/>
    </defs>
    <g clip-path="url(#pa9a79c7691)">
     <use xlink:href="#m73123f5389" x="73.832727" y="64.513831" style="fill: #bfbbd9; stroke: #bfbbd9"/>
     <use xlink:href="#m73123f5389" x="80.45833" y="71.486488" style="fill: #bfbbd9; stroke: #bfbbd9"/>
     <use xlink:href="#m73123f5389" x="87.083933" y="80.001996" style="fill: #bfbbd9; stroke: #bfbbd9"/>
     <use xlink:href="#m73123f5389" x="93.709536" y="89.932834" style="fill: #bfbbd9; stroke: #bfbbd9"/>
     <use xlink:href="#m73123f5389" x="100.335139" y="101.130288" style="fill: #bfbbd9; stroke: #bfbbd9"/>
     <use xlink:href="#m73123f5389" x="106.960742" y="113.426677" style="fill: #bfbbd9; stroke: #bfbbd9"/>
     <use xlink:href="#m73123f5389" x="113.586345" y="126.63786" style="fill: #bfbbd9; stroke: #bfbbd9"/>
     <use xlink:href="#m73123f5389" x="120.211948" y="140.566001" style="fill: #bfbbd9; stroke: #bfbbd9"/>
     <use xlink:href="#m73123f5389" x="126.837551" y="155.002525" style="fill: #bfbbd9; stroke: #bfbbd9"/>
     <use xlink:href="#m73123f5389" x="133.463154" y="169.731244" style="fill: #bfbbd9; stroke: #bfbbd9"/>
     <use xlink:href="#m73123f5389" x="140.088757" y="184.531596" style="fill: #bfbbd9; stroke: #bfbbd9"/>
     <use xlink:href="#m73123f5389" x="146.71436" y="199.181945" style="fill: #bfbbd9; stroke: #bfbbd9"/>
     <use xlink:href="#m73123f5389" x="153.339963" y="213.462902" style="fill: #bfbbd9; stroke: #bfbbd9"/>
     <use xlink:href="#m73123f5389" x="159.965566" y="227.160609" style="fill: #bfbbd9; stroke: #bfbbd9"/>
     <use xlink:href="#m73123f5389" x="166.591169" y="240.069942" style="fill: #bfbbd9; stroke: #bfbbd9"/>
     <use xlink:href="#m73123f5389" x="173.216772" y="251.997583" style="fill: #bfbbd9; stroke: #bfbbd9"/>
     <use xlink:href="#m73123f5389" x="179.842375" y="262.764917" style="fill: #bfbbd9; stroke: #bfbbd9"/>
     <use xlink:href="#m73123f5389" x="186.467978" y="272.210702" style="fill: #bfbbd9; stroke: #bfbbd9"/>
     <use xlink:href="#m73123f5389" x="193.093581" y="280.193487" style="fill: #bfbbd9; stroke: #bfbbd9"/>
     <use xlink:href="#m73123f5389" x="199.719184" y="286.593729" style="fill: #bfbbd9; stroke: #bfbbd9"/>
     <use xlink:href="#m73123f5389" x="206.344787" y="291.315585" style="fill: #bfbbd9; stroke: #bfbbd9"/>
     <use xlink:href="#m73123f5389" x="212.97039" y="294.288345" style="fill: #bfbbd9; stroke: #bfbbd9"/>
     <use xlink:href="#m73123f5389" x="219.595993" y="295.467491" style="fill: #bfbbd9; stroke: #bfbbd9"/>
     <use xlink:href="#m73123f5389" x="226.221596" y="294.835366" style="fill: #bfbbd9; stroke: #bfbbd9"/>
     <use xlink:href="#m73123f5389" x="232.847199" y="292.401437" style="fill: #bfbbd9; stroke: #bfbbd9"/>
     <use xlink:href="#m73123f5389" x="239.472801" y="288.20215" style="fill: #bfbbd9; stroke: #bfbbd9"/>
     <use xlink:href="#m73123f5389" x="246.098404" y="282.300392" style="fill: #bfbbd9; stroke: #bfbbd9"/>
     <use xlink:href="#m73123f5389" x="252.724007" y="274.784539" style="fill: #bfbbd9; stroke: #bfbbd9"/>
     <use xlink:href="#m73123f5389" x="259.34961" y="265.767144" style="fill: #bfbbd9; stroke: #bfbbd9"/>
     <use xlink:href="#m73123f5389" x="265.975213" y="255.383241" style="fill: #bfbbd9; stroke: #bfbbd9"/>
     <use xlink:href="#m73123f5389" x="272.600816" y="243.78833" style="fill: #bfbbd9; stroke: #bfbbd9"/>
     <use xlink:href="#m73123f5389" x="279.226419" y="231.156044" style="fill: #bfbbd9; stroke: #bfbbd9"/>
     <use xlink:href="#m73123f5389" x="285.852022" y="217.675553" style="fill: #bfbbd9; stroke: #bfbbd9"/>
     <use xlink:href="#m73123f5389" x="292.477625" y="203.548727" style="fill: #bfbbd9; stroke: #bfbbd9"/>
     <use xlink:href="#m73123f5389" x="299.103228" y="188.987117" style="fill: #bfbbd9; stroke: #bfbbd9"/>
     <use xlink:href="#m73123f5389" x="305.728831" y="174.208782" style="fill: #bfbbd9; stroke: #bfbbd9"/>
     <use xlink:href="#m73123f5389" x="312.354434" y="159.435028" style="fill: #bfbbd9; stroke: #bfbbd9"/>
     <use xlink:href="#m73123f5389" x="318.980037" y="144.887093" style="fill: #bfbbd9; stroke: #bfbbd9"/>
     <use xlink:href="#m73123f5389" x="325.60564" y="130.782832" style="fill: #bfbbd9; stroke: #bfbbd9"/>
     <use xlink:href="#m73123f5389" x="332.231243" y="117.333458" style="fill: #bfbbd9; stroke: #bfbbd9"/>
     <use xlink:href="#m73123f5389" x="338.856846" y="104.740375" style="fill: #bfbbd9; stroke: #bfbbd9"/>
     <use xlink:href="#m73123f5389" x="345.482449" y="93.192165" style="fill: #bfbbd9; stroke: #bfbbd9"/>
     <use xlink:href="#m73123f5389" x="352.108052" y="82.861762" style="fill: #bfbbd9; stroke: #bfbbd9"/>
     <use xlink:href="#m73123f5389" x="358.733655" y="73.903864" style="fill: #bfbbd9; stroke: #bfbbd9"/>
     <use xlink:href="#m73123f5389" x="365.359258" y="66.452617" style="fill: #bfbbd9; stroke: #bfbbd9"/>
     <use xlink:href="#m73123f5389" x="371.984861" y="60.619603" style="fill: #bfbbd9; stroke: #bfbbd9"/>
     <use xlink:href="#m73123f5389" x="378.610464" y="56.492172" style="fill: #bfbbd9; stroke: #bfbbd9"/>
     <use xlink:href="#m73123f5389" x="385.236067" y="54.132131" style="fill: #bfbbd9; stroke: #bfbbd9"/>
     <use xlink:href="#m73123f5389" x="391.86167" y="53.574823" style="fill: #bfbbd9; stroke: #bfbbd9"/>
     <use xlink:href="#m73123f5389" x="398.487273" y="54.828594" style="fill: #bfbbd9; stroke: #bfbbd9"/>
    </g>
   </g>
   <g id="line2d_20">
    <path d="M 73.832727 157.44294 
L 80.45833 172.198985 
L 87.083933 186.989708 
L 93.709536 201.593618 
L 100.335139 215.792021 
L 106.960742 229.372295 
L 113.586345 242.131076 
L 120.211948 253.877299 
L 126.837551 264.435066 
L 133.463154 273.646273 
L 140.088757 281.372983 
L 146.71436 287.499487 
L 153.339963 291.934041 
L 159.965566 294.610237 
L 166.591169 295.488 
L 173.216772 294.554185 
L 179.842375 291.822775 
L 186.467978 287.334674 
L 193.093581 281.157091 
L 199.719184 273.382536 
L 206.344787 264.127432 
L 212.97039 253.530375 
L 219.595993 241.750057 
L 226.221596 228.962888 
L 232.847199 215.360356 
L 239.472801 201.14616 
L 246.098404 186.533157 
L 252.724007 171.740178 
L 259.34961 156.988747 
L 265.975213 142.499769 
L 272.600816 128.490215 
L 279.226419 115.169879 
L 285.852022 102.738234 
L 292.477625 91.381444 
L 299.103228 81.269577 
L 305.728831 72.554059 
L 312.354434 65.365404 
L 318.980037 59.811264 
L 325.60564 55.97481 
L 332.231243 53.913496 
L 338.856846 53.658188 
L 345.482449 55.212709 
L 352.108052 58.553782 
L 358.733655 63.631373 
L 365.359258 70.369445 
L 371.984861 78.667096 
L 378.610464 88.400067 
L 385.236067 99.422608 
L 391.86167 111.569655 
L 398.487273 124.659306 
" clip-path="url(#pa9a79c7691)" style="fill: none; stroke: #fa8174; stroke-width: 1.5; stroke-linecap: square"/>
    <defs>
     <path id="m012518b4a0" d="M 0 3 
C 0.795609 3 1.55874 2.683901 2.12132 2.12132 
C 2.683901 1.55874 3 0.795609 3 0 
C 3 -0.795609 2.683901 -1.55874 2.12132 -2.12132 
C 1.55874 -2.683901 0.795609 -3 0 -3 
C -0.795609 -3 -1.55874 -2.683901 -2.12132 -2.12132 
C -2.683901 -1.55874 -3 -0.795609 -3 0 
C -3 0.795609 -2.683901 1.55874 -2.12132 2.12132 
C -1.55874 2.683901 -0.795609 3 0 3 
z
" style="stroke: #fa8174"/>
    </defs>
    <g clip-path="url(#pa9a79c7691)">
     <use xlink:href="#m012518b4a0" x="73.832727" y="157.44294" style="fill: #fa8174; stroke: #fa8174"/>
     <use xlink:href="#m012518b4a0" x="80.45833" y="172.198985" style="fill: #fa8174; stroke: #fa8174"/>
     <use xlink:href="#m012518b4a0" x="87.083933" y="186.989708" style="fill: #fa8174; stroke: #fa8174"/>
     <use xlink:href="#m012518b4a0" x="93.709536" y="201.593618" style="fill: #fa8174; stroke: #fa8174"/>
     <use xlink:href="#m012518b4a0" x="100.335139" y="215.792021" style="fill: #fa8174; stroke: #fa8174"/>
     <use xlink:href="#m012518b4a0" x="106.960742" y="229.372295" style="fill: #fa8174; stroke: #fa8174"/>
     <use xlink:href="#m012518b4a0" x="113.586345" y="242.131076" style="fill: #fa8174; stroke: #fa8174"/>
     <use xlink:href="#m012518b4a0" x="120.211948" y="253.877299" style="fill: #fa8174; stroke: #fa8174"/>
     <use xlink:href="#m012518b4a0" x="126.837551" y="264.435066" style="fill: #fa8174; stroke: #fa8174"/>
     <use xlink:href="#m012518b4a0" x="133.463154" y="273.646273" style="fill: #fa8174; stroke: #fa8174"/>
     <use xlink:href="#m012518b4a0" x="140.088757" y="281.372983" style="fill: #fa8174; stroke: #fa8174"/>
     <use xlink:href="#m012518b4a0" x="146.71436" y="287.499487" style="fill: #fa8174; stroke: #fa8174"/>
     <use xlink:href="#m012518b4a0" x="153.339963" y="291.934041" style="fill: #fa8174; stroke: #fa8174"/>
     <use xlink:href="#m012518b4a0" x="159.965566" y="294.610237" style="fill: #fa8174; stroke: #fa8174"/>
     <use xlink:href="#m012518b4a0" x="166.591169" y="295.488" style="fill: #fa8174; stroke: #fa8174"/>
     <use xlink:href="#m012518b4a0" x="173.216772" y="294.554185" style="fill: #fa8174; stroke: #fa8174"/>
     <use xlink:href="#m012518b4a0" x="179.842375" y="291.822775" style="fill: #fa8174; stroke: #fa8174"/>
     <use xlink:href="#m012518b4a0" x="186.467978" y="287.334674" style="fill: #fa8174; stroke: #fa8174"/>
     <use xlink:href="#m012518b4a0" x="193.093581" y="281.157091" style="fill: #fa8174; stroke: #fa8174"/>
     <use xlink:href="#m012518b4a0" x="199.719184" y="273.382536" style="fill: #fa8174; stroke: #fa8174"/>
     <use xlink:href="#m012518b4a0" x="206.344787" y="264.127432" style="fill: #fa8174; stroke: #fa8174"/>
     <use xlink:href="#m012518b4a0" x="212.97039" y="253.530375" style="fill: #fa8174; stroke: #fa8174"/>
     <use xlink:href="#m012518b4a0" x="219.595993" y="241.750057" style="fill: #fa8174; stroke: #fa8174"/>
     <use xlink:href="#m012518b4a0" x="226.221596" y="228.962888" style="fill: #fa8174; stroke: #fa8174"/>
     <use xlink:href="#m012518b4a0" x="232.847199" y="215.360356" style="fill: #fa8174; stroke: #fa8174"/>
     <use xlink:href="#m012518b4a0" x="239.472801" y="201.14616" style="fill: #fa8174; stroke: #fa8174"/>
     <use xlink:href="#m012518b4a0" x="246.098404" y="186.533157" style="fill: #fa8174; stroke: #fa8174"/>
     <use xlink:href="#m012518b4a0" x="252.724007" y="171.740178" style="fill: #fa8174; stroke: #fa8174"/>
     <use xlink:href="#m012518b4a0" x="259.34961" y="156.988747" style="fill: #fa8174; stroke: #fa8174"/>
     <use xlink:href="#m012518b4a0" x="265.975213" y="142.499769" style="fill: #fa8174; stroke: #fa8174"/>
     <use xlink:href="#m012518b4a0" x="272.600816" y="128.490215" style="fill: #fa8174; stroke: #fa8174"/>
     <use xlink:href="#m012518b4a0" x="279.226419" y="115.169879" style="fill: #fa8174; stroke: #fa8174"/>
     <use xlink:href="#m012518b4a0" x="285.852022" y="102.738234" style="fill: #fa8174; stroke: #fa8174"/>
     <use xlink:href="#m012518b4a0" x="292.477625" y="91.381444" style="fill: #fa8174; stroke: #fa8174"/>
     <use xlink:href="#m012518b4a0" x="299.103228" y="81.269577" style="fill: #fa8174; stroke: #fa8174"/>
     <use xlink:href="#m012518b4a0" x="305.728831" y="72.554059" style="fill: #fa8174; stroke: #fa8174"/>
     <use xlink:href="#m012518b4a0" x="312.354434" y="65.365404" style="fill: #fa8174; stroke: #fa8174"/>
     <use xlink:href="#m012518b4a0" x="318.980037" y="59.811264" style="fill: #fa8174; stroke: #fa8174"/>
     <use xlink:href="#m012518b4a0" x="325.60564" y="55.97481" style="fill: #fa8174; stroke: #fa8174"/>
     <use xlink:href="#m012518b4a0" x="332.231243" y="53.913496" style="fill: #fa8174; stroke: #fa8174"/>
     <use xlink:href="#m012518b4a0" x="338.856846" y="53.658188" style="fill: #fa8174; stroke: #fa8174"/>
     <use xlink:href="#m012518b4a0" x="345.482449" y="55.212709" style="fill: #fa8174; stroke: #fa8174"/>
     <use xlink:href="#m012518b4a0" x="352.108052" y="58.553782" style="fill: #fa8174; stroke: #fa8174"/>
     <use xlink:href="#m012518b4a0" x="358.733655" y="63.631373" style="fill: #fa8174; stroke: #fa8174"/>
     <use xlink:href="#m012518b4a0" x="365.359258" y="70.369445" style="fill: #fa8174; stroke: #fa8174"/>
     <use xlink:href="#m012518b4a0" x="371.984861" y="78.667096" style="fill: #fa8174; stroke: #fa8174"/>
     <use xlink:href="#m012518b4a0" x="378.610464" y="88.400067" style="fill: #fa8174; stroke: #fa8174"/>
     <use xlink:href="#m012518b4a0" x="385.236067" y="99.422608" style="fill: #fa8174; stroke: #fa8174"/>
     <use xlink:href="#m012518b4a0" x="391.86167" y="111.569655" style="fill: #fa8174; stroke: #fa8174"/>
     <use xlink:href="#m012518b4a0" x="398.487273" y="124.659306" style="fill: #fa8174; stroke: #fa8174"/>
    </g>
   </g>
   <g id="line2d_21">
    <path d="M 73.832727 266.067765 
L 80.45833 275.040558 
L 87.083933 282.507975 
L 93.709536 288.358189 
L 100.335139 292.503594 
L 106.960742 294.882113 
L 113.586345 295.458126 
L 120.211948 294.223009 
L 126.837551 291.195257 
L 133.463154 286.42021 
L 140.088757 279.969376 
L 146.71436 271.939355 
L 153.339963 262.450398 
L 159.965566 251.644602 
L 166.591169 239.683783 
L 173.216772 226.747056 
L 179.842375 213.028148 
L 186.467978 198.732501 
L 193.093581 184.074192 
L 199.719184 169.272729 
L 206.344787 154.549766 
L 212.97039 140.125778 
L 219.595993 126.216765 
L 226.221596 113.031016 
L 232.847199 100.765987 
L 239.472801 89.605347 
L 246.098404 79.716227 
L 252.724007 71.246718 
L 259.34961 64.323649 
L 265.975213 59.050695 
L 272.600816 55.506818 
L 279.226419 53.745088 
L 285.852022 53.791886 
L 292.477625 55.646512 
L 299.103228 59.281193 
L 305.728831 64.641498 
L 312.354434 71.647159 
L 318.980037 80.193264 
L 325.60564 90.151835 
L 332.231243 101.373743 
L 338.856846 113.690939 
L 345.482449 126.918973 
L 352.108052 140.859755 
L 358.733655 155.30452 
L 365.359258 170.036959 
L 371.984861 184.836452 
L 378.610464 199.481378 
L 385.236067 213.752427 
L 391.86167 227.43589 
L 398.487273 240.326857 
" clip-path="url(#pa9a79c7691)" style="fill: none; stroke: #81b1d2; stroke-width: 1.5; stroke-linecap: square"/>
    <defs>
     <path id="m412e2d716f" d="M 0 3 
C 0.795609 3 1.55874 2.683901 2.12132 2.12132 
C 2.683901 1.55874 3 0.795609 3 0 
C 3 -0.795609 2.683901 -1.55874 2.12132 -2.12132 
C 1.55874 -2.683901 0.795609 -3 0 -3 
C -0.795609 -3 -1.55874 -2.683901 -2.12132 -2.12132 
C -2.683901 -1.55874 -3 -0.795609 -3 0 
C -3 0.795609 -2.683901 1.55874 -2.12132 2.12132 
C -1.55874 2.683901 -0.795609 3 0 3 
z
" style="stroke: #81b1d2"/>
    </defs>
    <g clip-path="url(#pa9a79c7691)">
     <use xlink:href="#m412e2d716f" x="73.832727" y="266.067765" style="fill: #81b1d2; stroke: #81b1d2"/>
     <use xlink:href="#m412e2d716f" x="80.45833" y="275.040558" style="fill: #81b1d2; stroke: #81b1d2"/>
     <use xlink:href="#m412e2d716f" x="87.083933" y="282.507975" style="fill: #81b1d2; stroke: #81b1d2"/>
     <use xlink:href="#m412e2d716f" x="93.709536" y="288.358189" style="fill: #81b1d2; stroke: #81b1d2"/>
     <use xlink:href="#m412e2d716f" x="100.335139" y="292.503594" style="fill: #81b1d2; stroke: #81b1d2"/>
     <use xlink:href="#m412e2d716f" x="106.960742" y="294.882113" style="fill: #81b1d2; stroke: #81b1d2"/>
     <use xlink:href="#m412e2d716f" x="113.586345" y="295.458126" style="fill: #81b1d2; stroke: #81b1d2"/>
     <use xlink:href="#m412e2d716f" x="120.211948" y="294.223009" style="fill: #81b1d2; stroke: #81b1d2"/>
     <use xlink:href="#m412e2d716f" x="126.837551" y="291.195257" style="fill: #81b1d2; stroke: #81b1d2"/>
     <use xlink:href="#m412e2d716f" x="133.463154" y="286.42021" style="fill: #81b1d2; stroke: #81b1d2"/>
     <use xlink:href="#m412e2d716f" x="140.088757" y="279.969376" style="fill: #81b1d2; stroke: #81b1d2"/>
     <use xlink:href="#m412e2d716f" x="146.71436" y="271.939355" style="fill: #81b1d2; stroke: #81b1d2"/>
     <use xlink:href="#m412e2d716f" x="153.339963" y="262.450398" style="fill: #81b1d2; stroke: #81b1d2"/>
     <use xlink:href="#m412e2d716f" x="159.965566" y="251.644602" style="fill: #81b1d2; stroke: #81b1d2"/>
     <use xlink:href="#m412e2d716f" x="166.591169" y="239.683783" style="fill: #81b1d2; stroke: #81b1d2"/>
     <use xlink:href="#m412e2d716f" x="173.216772" y="226.747056" style="fill: #81b1d2; stroke: #81b1d2"/>
     <use xlink:href="#m412e2d716f" x="179.842375" y="213.028148" style="fill: #81b1d2; stroke: #81b1d2"/>
     <use xlink:href="#m412e2d716f" x="186.467978" y="198.732501" style="fill: #81b1d2; stroke: #81b1d2"/>
     <use xlink:href="#m412e2d716f" x="193.093581" y="184.074192" style="fill: #81b1d2; stroke: #81b1d2"/>
     <use xlink:href="#m412e2d716f" x="199.719184" y="169.272729" style="fill: #81b1d2; stroke: #81b1d2"/>
     <use xlink:href="#m412e2d716f" x="206.344787" y="154.549766" style="fill: #81b1d2; stroke: #81b1d2"/>
     <use xlink:href="#m412e2d716f" x="212.97039" y="140.125778" style="fill: #81b1d2; stroke: #81b1d2"/>
     <use xlink:href="#m412e2d716f" x="219.595993" y="126.216765" style="fill: #81b1d2; stroke: #81b1d2"/>
     <use xlink:href="#m412e2d716f" x="226.221596" y="113.031016" style="fill: #81b1d2; stroke: #81b1d2"/>
     <use xlink:href="#m412e2d716f" x="232.847199" y="100.765987" style="fill: #81b1d2; stroke: #81b1d2"/>
     <use xlink:href="#m412e2d716f" x="239.472801" y="89.605347" style="fill: #81b1d2; stroke: #81b1d2"/>
     <use xlink:href="#m412e2d716f" x="246.098404" y="79.716227" style="fill: #81b1d2; stroke: #81b1d2"/>
     <use xlink:href="#m412e2d716f" x="252.724007" y="71.246718" style="fill: #81b1d2; stroke: #81b1d2"/>
     <use xlink:href="#m412e2d716f" x="259.34961" y="64.323649" style="fill: #81b1d2; stroke: #81b1d2"/>
     <use xlink:href="#m412e2d716f" x="265.975213" y="59.050695" style="fill: #81b1d2; stroke: #81b1d2"/>
     <use xlink:href="#m412e2d716f" x="272.600816" y="55.506818" style="fill: #81b1d2; stroke: #81b1d2"/>
     <use xlink:href="#m412e2d716f" x="279.226419" y="53.745088" style="fill: #81b1d2; stroke: #81b1d2"/>
     <use xlink:href="#m412e2d716f" x="285.852022" y="53.791886" style="fill: #81b1d2; stroke: #81b1d2"/>
     <use xlink:href="#m412e2d716f" x="292.477625" y="55.646512" style="fill: #81b1d2; stroke: #81b1d2"/>
     <use xlink:href="#m412e2d716f" x="299.103228" y="59.281193" style="fill: #81b1d2; stroke: #81b1d2"/>
     <use xlink:href="#m412e2d716f" x="305.728831" y="64.641498" style="fill: #81b1d2; stroke: #81b1d2"/>
     <use xlink:href="#m412e2d716f" x="312.354434" y="71.647159" style="fill: #81b1d2; stroke: #81b1d2"/>
     <use xlink:href="#m412e2d716f" x="318.980037" y="80.193264" style="fill: #81b1d2; stroke: #81b1d2"/>
     <use xlink:href="#m412e2d716f" x="325.60564" y="90.151835" style="fill: #81b1d2; stroke: #81b1d2"/>
     <use xlink:href="#m412e2d716f" x="332.231243" y="101.373743" style="fill: #81b1d2; stroke: #81b1d2"/>
     <use xlink:href="#m412e2d716f" x="338.856846" y="113.690939" style="fill: #81b1d2; stroke: #81b1d2"/>
     <use xlink:href="#m412e2d716f" x="345.482449" y="126.918973" style="fill: #81b1d2; stroke: #81b1d2"/>
     <use xlink:href="#m412e2d716f" x="352.108052" y="140.859755" style="fill: #81b1d2; stroke: #81b1d2"/>
     <use xlink:href="#m412e2d716f" x="358.733655" y="155.30452" style="fill: #81b1d2; stroke: #81b1d2"/>
     <use xlink:href="#m412e2d716f" x="365.359258" y="170.036959" style="fill: #81b1d2; stroke: #81b1d2"/>
     <use xlink:href="#m412e2d716f" x="371.984861" y="184.836452" style="fill: #81b1d2; stroke: #81b1d2"/>
     <use xlink:href="#m412e2d716f" x="378.610464" y="199.481378" style="fill: #81b1d2; stroke: #81b1d2"/>
     <use xlink:href="#m412e2d716f" x="385.236067" y="213.752427" style="fill: #81b1d2; stroke: #81b1d2"/>
     <use xlink:href="#m412e2d716f" x="391.86167" y="227.43589" style="fill: #81b1d2; stroke: #81b1d2"/>
     <use xlink:href="#m412e2d716f" x="398.487273" y="240.326857" style="fill: #81b1d2; stroke: #81b1d2"/>
    </g>
   </g>
   <g id="line2d_22">
    <path d="M 73.832727 290.519143 
L 80.45833 285.45914 
L 87.083933 278.737741 
L 93.709536 270.4556 
L 100.335139 260.736741 
L 106.960742 249.726705 
L 113.586345 237.590367 
L 120.211948 224.50947 
L 126.837551 210.679901 
L 133.463154 196.308756 
L 140.088757 181.611245 
L 146.71436 166.807464 
L 153.339963 152.119099 
L 159.965566 137.766109 
L 166.591169 123.963431 
L 173.216772 110.917759 
L 179.842375 98.824454 
L 186.467978 87.864613 
L 193.093581 78.202359 
L 199.719184 69.982386 
L 206.344787 63.327787 
L 212.97039 58.338215 
L 219.595993 55.08839 
L 226.221596 53.626978 
L 232.847199 53.975863 
L 239.472801 56.12982 
L 246.098404 60.056595 
L 252.724007 65.697383 
L 259.34961 72.967714 
L 265.975213 81.758715 
L 272.600816 91.938738 
L 279.226419 103.35534 
L 285.852022 115.837555 
L 292.477625 129.198462 
L 299.103228 143.237982 
L 305.728831 157.745872 
L 312.354434 172.504875 
L 318.980037 187.293976 
L 325.60564 201.891708 
L 332.231243 216.079468 
L 338.856846 229.644795 
L 345.482449 242.384547 
L 352.108052 254.107948 
L 358.733655 264.639437 
L 365.359258 273.821306 
L 371.984861 281.516056 
L 378.610464 287.608459 
L 385.236067 292.007279 
L 391.86167 294.646646 
L 398.487273 295.487033 
" clip-path="url(#pa9a79c7691)" style="fill: none; stroke: #fdb462; stroke-width: 1.5; stroke-linecap: square"/>
    <defs>
     <path id="m7199f32932" d="M 0 3 
C 0.795609 3 1.55874 2.683901 2.12132 2.12132 
C 2.683901 1.55874 3 0.795609 3 0 
C 3 -0.795609 2.683901 -1.55874 2.12132 -2.12132 
C 1.55874 -2.683901 0.795609 -3 0 -3 
C -0.795609 -3 -1.55874 -2.683901 -2.12132 -2.12132 
C -2.683901 -1.55874 -3 -0.795609 -3 0 
C -3 0.795609 -2.683901 1.55874 -2.12132 2.12132 
C -1.55874 2.683901 -0.795609 3 0 3 
z
" style="stroke: #fdb462"/>
    </defs>
    <g clip-path="url(#pa9a79c7691)">
     <use xlink:href="#m7199f32932" x="73.832727" y="290.519143" style="fill: #fdb462; stroke: #fdb462"/>
     <use xlink:href="#m7199f32932" x="80.45833" y="285.45914" style="fill: #fdb462; stroke: #fdb462"/>
     <use xlink:href="#m7199f32932" x="87.083933" y="278.737741" style="fill: #fdb462; stroke: #fdb462"/>
     <use xlink:href="#m7199f32932" x="93.709536" y="270.4556" style="fill: #fdb462; stroke: #fdb462"/>
     <use xlink:href="#m7199f32932" x="100.335139" y="260.736741" style="fill: #fdb462; stroke: #fdb462"/>
     <use xlink:href="#m7199f32932" x="106.960742" y="249.726705" style="fill: #fdb462; stroke: #fdb462"/>
     <use xlink:href="#m7199f32932" x="113.586345" y="237.590367" style="fill: #fdb462; stroke: #fdb462"/>
     <use xlink:href="#m7199f32932" x="120.211948" y="224.50947" style="fill: #fdb462; stroke: #fdb462"/>
     <use xlink:href="#m7199f32932" x="126.837551" y="210.679901" style="fill: #fdb462; stroke: #fdb462"/>
     <use xlink:href="#m7199f32932" x="133.463154" y="196.308756" style="fill: #fdb462; stroke: #fdb462"/>
     <use xlink:href="#m7199f32932" x="140.088757" y="181.611245" style="fill: #fdb462; stroke: #fdb462"/>
     <use xlink:href="#m7199f32932" x="146.71436" y="166.807464" style="fill: #fdb462; stroke: #fdb462"/>
     <use xlink:href="#m7199f32932" x="153.339963" y="152.119099" style="fill: #fdb462; stroke: #fdb462"/>
     <use xlink:href="#m7199f32932" x="159.965566" y="137.766109" style="fill: #fdb462; stroke: #fdb462"/>
     <use xlink:href="#m7199f32932" x="166.591169" y="123.963431" style="fill: #fdb462; stroke: #fdb462"/>
     <use xlink:href="#m7199f32932" x="173.216772" y="110.917759" style="fill: #fdb462; stroke: #fdb462"/>
     <use xlink:href="#m7199f32932" x="179.842375" y="98.824454" style="fill: #fdb462; stroke: #fdb462"/>
     <use xlink:href="#m7199f32932" x="186.467978" y="87.864613" style="fill: #fdb462; stroke: #fdb462"/>
     <use xlink:href="#m7199f32932" x="193.093581" y="78.202359" style="fill: #fdb462; stroke: #fdb462"/>
     <use xlink:href="#m7199f32932" x="199.719184" y="69.982386" style="fill: #fdb462; stroke: #fdb462"/>
     <use xlink:href="#m7199f32932" x="206.344787" y="63.327787" style="fill: #fdb462; stroke: #fdb462"/>
     <use xlink:href="#m7199f32932" x="212.97039" y="58.338215" style="fill: #fdb462; stroke: #fdb462"/>
     <use xlink:href="#m7199f32932" x="219.595993" y="55.08839" style="fill: #fdb462; stroke: #fdb462"/>
     <use xlink:href="#m7199f32932" x="226.221596" y="53.626978" style="fill: #fdb462; stroke: #fdb462"/>
     <use xlink:href="#m7199f32932" x="232.847199" y="53.975863" style="fill: #fdb462; stroke: #fdb462"/>
     <use xlink:href="#m7199f32932" x="239.472801" y="56.12982" style="fill: #fdb462; stroke: #fdb462"/>
     <use xlink:href="#m7199f32932" x="246.098404" y="60.056595" style="fill: #fdb462; stroke: #fdb462"/>
     <use xlink:href="#m7199f32932" x="252.724007" y="65.697383" style="fill: #fdb462; stroke: #fdb462"/>
     <use xlink:href="#m7199f32932" x="259.34961" y="72.967714" style="fill: #fdb462; stroke: #fdb462"/>
     <use xlink:href="#m7199f32932" x="265.975213" y="81.758715" style="fill: #fdb462; stroke: #fdb462"/>
     <use xlink:href="#m7199f32932" x="272.600816" y="91.938738" style="fill: #fdb462; stroke: #fdb462"/>
     <use xlink:href="#m7199f32932" x="279.226419" y="103.35534" style="fill: #fdb462; stroke: #fdb462"/>
     <use xlink:href="#m7199f32932" x="285.852022" y="115.837555" style="fill: #fdb462; stroke: #fdb462"/>
     <use xlink:href="#m7199f32932" x="292.477625" y="129.198462" style="fill: #fdb462; stroke: #fdb462"/>
     <use xlink:href="#m7199f32932" x="299.103228" y="143.237982" style="fill: #fdb462; stroke: #fdb462"/>
     <use xlink:href="#m7199f32932" x="305.728831" y="157.745872" style="fill: #fdb462; stroke: #fdb462"/>
     <use xlink:href="#m7199f32932" x="312.354434" y="172.504875" style="fill: #fdb462; stroke: #fdb462"/>
     <use xlink:href="#m7199f32932" x="318.980037" y="187.293976" style="fill: #fdb462; stroke: #fdb462"/>
     <use xlink:href="#m7199f32932" x="325.60564" y="201.891708" style="fill: #fdb462; stroke: #fdb462"/>
     <use xlink:href="#m7199f32932" x="332.231243" y="216.079468" style="fill: #fdb462; stroke: #fdb462"/>
     <use xlink:href="#m7199f32932" x="338.856846" y="229.644795" style="fill: #fdb462; stroke: #fdb462"/>
     <use xlink:href="#m7199f32932" x="345.482449" y="242.384547" style="fill: #fdb462; stroke: #fdb462"/>
     <use xlink:href="#m7199f32932" x="352.108052" y="254.107948" style="fill: #fdb462; stroke: #fdb462"/>
     <use xlink:href="#m7199f32932" x="358.733655" y="264.639437" style="fill: #fdb462; stroke: #fdb462"/>
     <use xlink:href="#m7199f32932" x="365.359258" y="273.821306" style="fill: #fdb462; stroke: #fdb462"/>
     <use xlink:href="#m7199f32932" x="371.984861" y="281.516056" style="fill: #fdb462; stroke: #fdb462"/>
     <use xlink:href="#m7199f32932" x="378.610464" y="287.608459" style="fill: #fdb462; stroke: #fdb462"/>
     <use xlink:href="#m7199f32932" x="385.236067" y="292.007279" style="fill: #fdb462; stroke: #fdb462"/>
     <use xlink:href="#m7199f32932" x="391.86167" y="294.646646" style="fill: #fdb462; stroke: #fdb462"/>
     <use xlink:href="#m7199f32932" x="398.487273" y="295.487033" style="fill: #fdb462; stroke: #fdb462"/>
    </g>
   </g>
   <g id="patch_3">
    <path d="M 57.6 307.584 
L 57.6 41.472 
" style="fill: none; stroke: #ffffff; stroke-width: 0.8; stroke-linejoin: miter; stroke-linecap: square"/>
   </g>
   <g id="patch_4">
    <path d="M 414.72 307.584 
L 414.72 41.472 
" style="fill: none; stroke: #ffffff; stroke-width: 0.8; stroke-linejoin: miter; stroke-linecap: square"/>
   </g>
   <g id="patch_5">
    <path d="M 57.6 307.584 
L 414.72 307.584 
" style="fill: none; stroke: #ffffff; stroke-width: 0.8; stroke-linejoin: miter; stroke-linecap: square"/>
   </g>
   <g id="patch_6">
    <path d="M 57.6 41.472 
L 414.72 41.472 
" style="fill: none; stroke: #ffffff; stroke-width: 0.8; stroke-linejoin: miter; stroke-linecap: square"/>
   </g>
   <g id="text_19">
    <!-- 'dark_background' style sheet -->
    <g style="fill: #ffffff" transform="translate(146.084063 35.472) scale(0.12 -0.12)">
     <defs>
      <path id="DejaVuSans-27" d="M 1147 4666 
L 1147 2931 
L 616 2931 
L 616 4666 
L 1147 4666 
z
" transform="scale(0.015625)"/>
      <path id="DejaVuSans-64" d="M 2906 2969 
L 2906 4863 
L 3481 4863 
L 3481 0 
L 2906 0 
L 2906 525 
Q 2725 213 2448 61 
Q 2172 -91 1784 -91 
Q 1150 -91 751 415 
Q 353 922 353 1747 
Q 353 2572 751 3078 
Q 1150 3584 1784 3584 
Q 2172 3584 2448 3432 
Q 2725 3281 2906 2969 
z
M 947 1747 
Q 947 1113 1208 752 
Q 1469 391 1925 391 
Q 2381 391 2643 752 
Q 2906 1113 2906 1747 
Q 2906 2381 2643 2742 
Q 2381 3103 1925 3103 
Q 1469 3103 1208 2742 
Q 947 2381 947 1747 
z
" transform="scale(0.015625)"/>
      <path id="DejaVuSans-72" d="M 2631 2963 
Q 2534 3019 2420 3045 
Q 2306 3072 2169 3072 
Q 1681 3072 1420 2755 
Q 1159 2438 1159 1844 
L 1159 0 
L 581 0 
L 581 3500 
L 1159 3500 
L 1159 2956 
Q 1341 3275 1631 3429 
Q 1922 3584 2338 3584 
Q 2397 3584 2469 3576 
Q 2541 3569 2628 3553 
L 2631 2963 
z
" transform="scale(0.015625)"/>
      <path id="DejaVuSans-6b" d="M 581 4863 
L 1159 4863 
L 1159 1991 
L 2875 3500 
L 3609 3500 
L 1753 1863 
L 3688 0 
L 2938 0 
L 1159 1709 
L 1159 0 
L 581 0 
L 581 4863 
z
" transform="scale(0.015625)"/>
      <path id="DejaVuSans-5f" d="M 3263 -1063 
L 3263 -1509 
L -63 -1509 
L -63 -1063 
L 3263 -1063 
z
" transform="scale(0.015625)"/>
      <path id="DejaVuSans-62" d="M 3116 1747 
Q 3116 2381 2855 2742 
Q 2594 3103 2138 3103 
Q 1681 3103 1420 2742 
Q 1159 2381 1159 1747 
Q 1159 1113 1420 752 
Q 1681 391 2138 391 
Q 2594 391 2855 752 
Q 3116 1113 3116 1747 
z
M 1159 2969 
Q 1341 3281 1617 3432 
Q 1894 3584 2278 3584 
Q 2916 3584 3314 3078 
Q 3713 2572 3713 1747 
Q 3713 922 3314 415 
Q 2916 -91 2278 -91 
Q 1894 -91 1617 61 
Q 1341 213 1159 525 
L 1159 0 
L 581 0 
L 581 4863 
L 1159 4863 
L 1159 2969 
z
" transform="scale(0.015625)"/>
      <path id="DejaVuSans-63" d="M 3122 3366 
L 3122 2828 
Q 2878 2963 2633 3030 
Q 2388 3097 2138 3097 
Q 1578 3097 1268 2742 
Q 959 2388 959 1747 
Q 959 1106 1268 751 
Q 1578 397 2138 397 
Q 2388 397 2633 464 
Q 2878 531 3122 666 
L 3122 134 
Q 2881 22 2623 -34 
Q 2366 -91 2075 -91 
Q 1284 -91 818 406 
Q 353 903 353 1747 
Q 353 2603 823 3093 
Q 1294 3584 2113 3584 
Q 2378 3584 2631 3529 
Q 2884 3475 3122 3366 
z
" transform="scale(0.015625)"/>
      <path id="DejaVuSans-67" d="M 2906 1791 
Q 2906 2416 2648 2759 
Q 2391 3103 1925 3103 
Q 1463 3103 1205 2759 
Q 947 2416 947 1791 
Q 947 1169 1205 825 
Q 1463 481 1925 481 
Q 2391 481 2648 825 
Q 2906 1169 2906 1791 
z
M 3481 434 
Q 3481 -459 3084 -895 
Q 2688 -1331 1869 -1331 
Q 1566 -1331 1297 -1286 
Q 1028 -1241 775 -1147 
L 775 -588 
Q 1028 -725 1275 -790 
Q 1522 -856 1778 -856 
Q 2344 -856 2625 -561 
Q 2906 -266 2906 331 
L 2906 616 
Q 2728 306 2450 153 
Q 2172 0 1784 0 
Q 1141 0 747 490 
Q 353 981 353 1791 
Q 353 2603 747 3093 
Q 1141 3584 1784 3584 
Q 2172 3584 2450 3431 
Q 2728 3278 2906 2969 
L 2906 3500 
L 3481 3500 
L 3481 434 
z
" transform="scale(0.015625)"/>
      <path id="DejaVuSans-6f" d="M 1959 3097 
Q 1497 3097 1228 2736 
Q 959 2375 959 1747 
Q 959 1119 1226 758 
Q 1494 397 1959 397 
Q 2419 397 2687 759 
Q 2956 1122 2956 1747 
Q 2956 2369 2687 2733 
Q 2419 3097 1959 3097 
z
M 1959 3584 
Q 2709 3584 3137 3096 
Q 3566 2609 3566 1747 
Q 3566 888 3137 398 
Q 2709 -91 1959 -91 
Q 1206 -91 779 398 
Q 353 888 353 1747 
Q 353 2609 779 3096 
Q 1206 3584 1959 3584 
z
" transform="scale(0.015625)"/>
      <path id="DejaVuSans-75" d="M 544 1381 
L 544 3500 
L 1119 3500 
L 1119 1403 
Q 1119 906 1312 657 
Q 1506 409 1894 409 
Q 2359 409 2629 706 
Q 2900 1003 2900 1516 
L 2900 3500 
L 3475 3500 
L 3475 0 
L 2900 0 
L 2900 538 
Q 2691 219 2414 64 
Q 2138 -91 1772 -91 
Q 1169 -91 856 284 
Q 544 659 544 1381 
z
M 1991 3584 
L 1991 3584 
z
" transform="scale(0.015625)"/>
      <path id="DejaVuSans-6e" d="M 3513 2113 
L 3513 0 
L 2938 0 
L 2938 2094 
Q 2938 2591 2744 2837 
Q 2550 3084 2163 3084 
Q 1697 3084 1428 2787 
Q 1159 2491 1159 1978 
L 1159 0 
L 581 0 
L 581 3500 
L 1159 3500 
L 1159 2956 
Q 1366 3272 1645 3428 
Q 1925 3584 2291 3584 
Q 2894 3584 3203 3211 
Q 3513 2838 3513 2113 
z
" transform="scale(0.015625)"/>
      <path id="DejaVuSans-20" transform="scale(0.015625)"/>
      <path id="DejaVuSans-74" d="M 1172 4494 
L 1172 3500 
L 2356 3500 
L 2356 3053 
L 1172 3053 
L 1172 1153 
Q 1172 725 1289 603 
Q 1406 481 1766 481 
L 2356 481 
L 2356 0 
L 1766 0 
Q 1100 0 847 248 
Q 594 497 594 1153 
L 594 3053 
L 172 3053 
L 172 3500 
L 594 3500 
L 594 4494 
L 1172 4494 
z
" transform="scale(0.015625)"/>
      <path id="DejaVuSans-6c" d="M 603 4863 
L 1178 4863 
L 1178 0 
L 603 0 
L 603 4863 
z
" transform="scale(0.015625)"/>
      <path id="DejaVuSans-65" d="M 3597 1894 
L 3597 1613 
L 953 1613 
Q 991 1019 1311 708 
Q 1631 397 2203 397 
Q 2534 397 2845 478 
Q 3156 559 3463 722 
L 3463 178 
Q 3153 47 2828 -22 
Q 2503 -91 2169 -91 
Q 1331 -91 842 396 
Q 353 884 353 1716 
Q 353 2575 817 3079 
Q 1281 3584 2069 3584 
Q 2775 3584 3186 3129 
Q 3597 2675 3597 1894 
z
M 3022 2063 
Q 3016 2534 2758 2815 
Q 2500 3097 2075 3097 
Q 1594 3097 1305 2825 
Q 1016 2553 972 2059 
L 3022 2063 
z
" transform="scale(0.015625)"/>
      <path id="DejaVuSans-68" d="M 3513 2113 
L 3513 0 
L 2938 0 
L 2938 2094 
Q 2938 2591 2744 2837 
Q 2550 3084 2163 3084 
Q 1697 3084 1428 2787 
Q 1159 2491 1159 1978 
L 1159 0 
L 581 0 
L 581 4863 
L 1159 4863 
L 1159 2956 
Q 1366 3272 1645 3428 
Q 1925 3584 2291 3584 
Q 2894 3584 3203 3211 
Q 3513 2838 3513 2113 
z
" transform="scale(0.015625)"/>
     </defs>
     <use xlink:href="#DejaVuSans-27"/>
     <use xlink:href="#DejaVuSans-64" transform="translate(27.490234 0)"/>
     <use xlink:href="#DejaVuSans-61" transform="translate(90.966797 0)"/>
     <use xlink:href="#DejaVuSans-72" transform="translate(152.246094 0)"/>
     <use xlink:href="#DejaVuSans-6b" transform="translate(193.359375 0)"/>
     <use xlink:href="#DejaVuSans-5f" transform="translate(251.269531 0)"/>
     <use xlink:href="#DejaVuSans-62" transform="translate(301.269531 0)"/>
     <use xlink:href="#DejaVuSans-61" transform="translate(364.746094 0)"/>
     <use xlink:href="#DejaVuSans-63" transform="translate(426.025391 0)"/>
     <use xlink:href="#DejaVuSans-6b" transform="translate(481.005859 0)"/>
     <use xlink:href="#DejaVuSans-67" transform="translate(538.916016 0)"/>
     <use xlink:href="#DejaVuSans-72" transform="translate(602.392578 0)"/>
     <use xlink:href="#DejaVuSans-6f" transform="translate(641.255859 0)"/>
     <use xlink:href="#DejaVuSans-75" transform="translate(702.4375 0)"/>
     <use xlink:href="#DejaVuSans-6e" transform="translate(765.816406 0)"/>
     <use xlink:href="#DejaVuSans-64" transform="translate(829.195312 0)"/>
     <use xlink:href="#DejaVuSans-27" transform="translate(892.671875 0)"/>
     <use xlink:href="#DejaVuSans-20" transform="translate(920.162109 0)"/>
     <use xlink:href="#DejaVuSans-73" transform="translate(951.949219 0)"/>
     <use xlink:href="#DejaVuSans-74" transform="translate(1004.048828 0)"/>
     <use xlink:href="#DejaVuSans-79" transform="translate(1043.257812 0)"/>
     <use xlink:href="#DejaVuSans-6c" transform="translate(1102.4375 0)"/>
     <use xlink:href="#DejaVuSans-65" transform="translate(1130.220703 0)"/>
     <use xlink:href="#DejaVuSans-20" transform="translate(1191.744141 0)"/>
     <use xlink:href="#DejaVuSans-73" transform="translate(1223.53125 0)"/>
     <use xlink:href="#DejaVuSans-68" transform="translate(1275.630859 0)"/>
     <use xlink:href="#DejaVuSans-65" transform="translate(1339.009766 0)"/>
     <use xlink:href="#DejaVuSans-65" transform="translate(1400.533203 0)"/>
     <use xlink:href="#DejaVuSans-74" transform="translate(1462.056641 0)"/>
    </g>
   </g>
  </g>
 </g>
 <defs>
  <clipPath id="pa9a79c7691">
   <rect x="57.6" y="41.472" width="357.12" height="266.112"/>
  </clipPath>
 </defs>
</svg>
